<svg width="22" height="22" viewBox="0 0 22 22" fill="none" xmlns="http://www.w3.org/2000/svg">
<path d="M17.1507 8.5146C17.0655 8.43076 16.9641 8.36421 16.8524 8.3188C16.7407 8.27338 16.6209 8.25 16.4999 8.25C16.3789 8.25 16.2591 8.27338 16.1474 8.3188C16.0357 8.36421 15.9343 8.43076 15.8491 8.5146L11.6507 12.6116C11.5655 12.6954 11.4641 12.762 11.3524 12.8074C11.2407 12.8528 11.1209 12.8762 10.9999 12.8762C10.8789 12.8762 10.7591 12.8528 10.6474 12.8074C10.5356 12.762 10.4343 12.6954 10.349 12.6116L6.15072 8.5146C6.0655 8.43076 5.96412 8.36421 5.85241 8.3188C5.74071 8.27338 5.62089 8.25 5.49988 8.25C5.37887 8.25 5.25906 8.27338 5.14735 8.3188C5.03565 8.36421 4.93426 8.43076 4.84905 8.5146C4.67832 8.68221 4.58249 8.90893 4.58249 9.14525C4.58249 9.38158 4.67832 9.6083 4.84905 9.7759L9.05655 13.8818C9.57218 14.3844 10.2711 14.6667 10.9999 14.6667C11.7286 14.6667 12.4276 14.3844 12.9432 13.8818L17.1507 9.7759C17.3214 9.6083 17.4173 9.38158 17.4173 9.14525C17.4173 8.90893 17.3214 8.68221 17.1507 8.5146Z" fill="#51453E"/>
</svg>
