<svg width="24" height="24" viewBox="0 0 24 24" fill="none" xmlns="http://www.w3.org/2000/svg">
<path d="M22.5 10.5002C22.4985 9.10823 21.9449 7.77374 20.9607 6.78949C19.9764 5.80525 18.6419 5.25165 17.25 5.25016C17.0841 5.25016 16.9181 5.25954 16.7541 5.27454C16.3308 4.37105 15.6588 3.60689 14.8168 3.07158C13.9748 2.53626 12.9977 2.25195 12 2.25195C11.0023 2.25195 10.0252 2.53626 9.18322 3.07158C8.34124 3.60689 7.66925 4.37105 7.24594 5.27454C7.08187 5.25954 6.91594 5.25016 6.75 5.25016C5.55823 5.25045 4.40202 5.65621 3.47144 6.40074C2.54086 7.14528 1.89129 8.18427 1.6295 9.34693C1.36771 10.5096 1.50929 11.7267 2.03097 12.7983C2.55264 13.8698 3.42336 14.7319 4.5 15.243V19.5002C4.5 19.898 4.65803 20.2795 4.93934 20.5608C5.22064 20.8421 5.60217 21.0002 6 21.0002H18C18.3978 21.0002 18.7794 20.8421 19.0607 20.5608C19.342 20.2795 19.5 19.898 19.5 19.5002V15.243C20.3969 14.8164 21.1547 14.1446 21.6856 13.3052C22.2165 12.4659 22.4989 11.4933 22.5 10.5002ZM18 19.5002H6V15.6958C6.24836 15.732 6.49902 15.7502 6.75 15.7502H17.25C17.501 15.7502 17.7516 15.732 18 15.6958V19.5002ZM17.25 14.2502H15.9609L16.4775 12.182C16.5219 11.9904 16.4893 11.789 16.3867 11.6213C16.284 11.4535 16.1196 11.3327 15.9288 11.285C15.738 11.2373 15.5361 11.2665 15.3665 11.3662C15.197 11.466 15.0735 11.6283 15.0225 11.8183L14.4141 14.2502H12.75V12.0002C12.75 11.8012 12.671 11.6105 12.5303 11.4698C12.3897 11.3292 12.1989 11.2502 12 11.2502C11.8011 11.2502 11.6103 11.3292 11.4697 11.4698C11.329 11.6105 11.25 11.8012 11.25 12.0002V14.2502H9.58594L8.9775 11.8183C8.95501 11.7213 8.91343 11.6297 8.85518 11.549C8.79694 11.4682 8.72319 11.3999 8.63825 11.3479C8.55331 11.2959 8.45887 11.2614 8.36045 11.2463C8.26202 11.2313 8.16158 11.2359 8.06498 11.2601C7.96838 11.2842 7.87756 11.3274 7.79781 11.387C7.71806 11.4466 7.65098 11.5215 7.60048 11.6073C7.54998 11.6932 7.51708 11.7882 7.50369 11.8868C7.4903 11.9855 7.4967 12.0859 7.5225 12.182L8.03906 14.2502H6.75C5.75544 14.2502 4.80161 13.8551 4.09835 13.1518C3.39509 12.4485 3 11.4947 3 10.5002C3 9.5056 3.39509 8.55177 4.09835 7.84851C4.80161 7.14525 5.75544 6.75016 6.75 6.75016H6.80437C6.76809 6.99851 6.74992 7.24917 6.75 7.50016C6.75 7.69907 6.82902 7.88984 6.96967 8.03049C7.11032 8.17114 7.30109 8.25016 7.5 8.25016C7.69891 8.25016 7.88968 8.17114 8.03033 8.03049C8.17098 7.88984 8.25 7.69907 8.25 7.50016C8.25 6.5056 8.64509 5.55177 9.34835 4.84851C10.0516 4.14525 11.0054 3.75016 12 3.75016C12.9946 3.75016 13.9484 4.14525 14.6517 4.84851C15.3549 5.55177 15.75 6.5056 15.75 7.50016C15.75 7.69907 15.829 7.88984 15.9697 8.03049C16.1103 8.17114 16.3011 8.25016 16.5 8.25016C16.6989 8.25016 16.8897 8.17114 17.0303 8.03049C17.171 7.88984 17.25 7.69907 17.25 7.50016C17.2501 7.24917 17.2319 6.99851 17.1956 6.75016H17.25C18.2446 6.75016 19.1984 7.14525 19.9017 7.84851C20.6049 8.55177 21 9.5056 21 10.5002C21 11.4947 20.6049 12.4485 19.9017 13.1518C19.1984 13.8551 18.2446 14.2502 17.25 14.2502Z" fill="#51453E"/>
</svg>
