<svg width="24" height="25" viewBox="0 0 24 25" fill="none" xmlns="http://www.w3.org/2000/svg">
<path d="M20.0002 6.58723V5.84998C20.0002 5.28992 19.9999 5.00993 19.8909 4.79602C19.795 4.60786 19.6428 4.45487 19.4546 4.35899C19.2407 4.25 18.9599 4.25 18.3999 4.25H5.59985C5.0398 4.25 4.76005 4.25 4.54614 4.35899C4.35798 4.45487 4.20511 4.60786 4.10924 4.79602C4.00024 5.00993 4.00024 5.28992 4.00024 5.84998V6.58723C4.00024 6.83182 4.00024 6.95417 4.02787 7.06925C4.05237 7.17129 4.09288 7.2688 4.14771 7.35828C4.20953 7.45916 4.29599 7.54562 4.46883 7.71846L4.46899 7.71863L9.53174 12.7814C9.70468 12.9543 9.79092 13.0408 9.85276 13.1417C9.90759 13.2312 9.9484 13.3287 9.9729 13.4308C10.0002 13.5447 10.0002 13.6656 10.0002 13.9053V13.9127V18.6611C10.0002 19.5183 10.0002 19.947 10.1808 20.2051C10.3384 20.4305 10.5816 20.5811 10.8538 20.6213C11.1654 20.6673 11.549 20.4756 12.3157 20.0923L13.1157 19.6923C13.4367 19.5317 13.5971 19.4514 13.7144 19.3317C13.8181 19.2258 13.8972 19.0981 13.9456 18.958C14.0002 18.7995 14.0002 18.6201 14.0002 18.2611V13.9127C14.0002 13.6681 14.0002 13.5459 14.0279 13.4308C14.0524 13.3287 14.0929 13.2312 14.1477 13.1417C14.2095 13.0408 14.296 12.9544 14.4688 12.7816L14.469 12.7814L19.5317 7.71863C19.7047 7.54568 19.7909 7.45919 19.8528 7.35828C19.9076 7.2688 19.9484 7.17129 19.9729 7.06925C20.0002 6.95534 20.0002 6.83431 20.0002 6.59468V6.58723Z" stroke="white" stroke-width="2" stroke-linecap="round" stroke-linejoin="round"/>
</svg>
