<svg width="25" height="24" viewBox="0 0 25 24" fill="none" xmlns="http://www.w3.org/2000/svg">
<path d="M8.72669 5.18708C10.3533 4.38299 12.214 4.18741 13.9722 4.63571C15.513 5.02855 16.8861 5.89311 17.9041 7.10012L16.0947 7.10012C15.5977 7.10012 15.1947 7.50307 15.1947 8.00012C15.1947 8.49718 15.5977 8.90012 16.0947 8.90012L20.0947 8.90012C20.5918 8.90012 20.9947 8.49718 20.9947 8.00012V4.00012C20.9947 3.50307 20.5918 3.10012 20.0947 3.10012C19.5977 3.10012 19.1947 3.50307 19.1947 4.00012V5.83989C17.9447 4.39909 16.28 3.3665 14.4169 2.89151C12.2422 2.33704 9.94092 2.57894 7.92903 3.57347C5.91715 4.56801 4.32749 6.24955 3.44743 8.31408C2.56738 10.3786 2.45503 12.6899 3.13068 14.83C3.80633 16.9702 5.2254 18.798 7.13134 19.983C9.03727 21.168 11.3043 21.6319 13.5225 21.291C15.7407 20.9501 17.7638 19.8268 19.2259 18.1242C20.6881 16.4215 21.4928 14.252 21.4946 12.0077C21.495 11.5106 21.0924 11.1074 20.5953 11.107C20.0982 11.1066 19.695 11.5092 19.6946 12.0062C19.6931 13.8207 19.0425 15.5749 17.8604 16.9515C16.6782 18.3281 15.0425 19.2363 13.2491 19.5119C11.4556 19.7875 9.62271 19.4124 8.08174 18.4543C6.54078 17.4963 5.39345 16.0185 4.84717 14.2881C4.3009 12.5578 4.39174 10.6891 5.10327 9.01991C5.8148 7.35072 7.10006 5.99118 8.72669 5.18708Z" fill="#3C3731"/>
</svg>
