<svg width="24" height="25" viewBox="0 0 24 25" fill="none" xmlns="http://www.w3.org/2000/svg">
<path d="M15.7074 14.5429C15.3168 14.1524 14.6837 14.1524 14.2931 14.5429C13.9026 14.9334 13.9026 15.5666 14.2931 15.9571L15.7074 14.5429ZM20.2931 21.9571C20.6837 22.3476 21.3168 22.3476 21.7074 21.9571C22.0979 21.5666 22.0979 20.9334 21.7074 20.5429L20.2931 21.9571ZM10.0002 16.25C6.68654 16.25 4.00024 13.5637 4.00024 10.25H2.00024C2.00024 14.6683 5.58197 18.25 10.0002 18.25V16.25ZM4.00024 10.25C4.00024 6.93629 6.68654 4.25 10.0002 4.25V2.25C5.58197 2.25 2.00024 5.83172 2.00024 10.25H4.00024ZM10.0002 4.25C13.314 4.25 16.0002 6.93629 16.0002 10.25H18.0002C18.0002 5.83172 14.4185 2.25 10.0002 2.25V4.25ZM16.0002 10.25C16.0002 13.5637 13.314 16.25 10.0002 16.25V18.25C14.4185 18.25 18.0002 14.6683 18.0002 10.25H16.0002ZM14.2931 15.9571L20.2931 21.9571L21.7074 20.5429L15.7074 14.5429L14.2931 15.9571Z" fill="white"/>
</svg>
