<svg width="14" height="15" viewBox="0 0 14 15" fill="none" xmlns="http://www.w3.org/2000/svg">
<g clip-path="url(#clip0_2743_8550)">
<path d="M7 0.5C5.61553 0.5 4.26216 0.910543 3.11101 1.67971C1.95987 2.44888 1.06266 3.54213 0.532846 4.82122C0.003033 6.1003 -0.13559 7.50777 0.134506 8.86563C0.404603 10.2235 1.07129 11.4708 2.05026 12.4497C3.02922 13.4287 4.2765 14.0954 5.63437 14.3655C6.99224 14.6356 8.3997 14.497 9.67879 13.9672C10.9579 13.4373 12.0511 12.5401 12.8203 11.389C13.5895 10.2378 14 8.88447 14 7.5C13.998 5.6441 13.2599 3.86479 11.9475 2.55247C10.6352 1.24015 8.8559 0.502007 7 0.5V0.5ZM7 13.3333C5.84628 13.3333 4.71846 12.9912 3.75918 12.3502C2.79989 11.7093 2.05222 10.7982 1.61071 9.73232C1.16919 8.66642 1.05368 7.49353 1.27876 6.36197C1.50384 5.23042 2.05941 4.19102 2.87521 3.37521C3.69102 2.5594 4.73042 2.00383 5.86198 1.77875C6.99353 1.55367 8.16642 1.66919 9.23232 2.1107C10.2982 2.55221 11.2093 3.29989 11.8502 4.25917C12.4912 5.21846 12.8333 6.34628 12.8333 7.5C12.8316 9.04658 12.2165 10.5293 11.1229 11.6229C10.0293 12.7165 8.54658 13.3316 7 13.3333V13.3333Z" fill="#88847E"/>
<path d="M7.00008 3.41699C6.84537 3.41699 6.697 3.47845 6.5876 3.58785C6.47821 3.69724 6.41675 3.84562 6.41675 4.00033V8.66699C6.41675 8.8217 6.47821 8.97007 6.5876 9.07947C6.697 9.18887 6.84537 9.25033 7.00008 9.25033C7.1548 9.25033 7.30317 9.18887 7.41257 9.07947C7.52196 8.97007 7.58342 8.8217 7.58342 8.66699V4.00033C7.58342 3.84562 7.52196 3.69724 7.41257 3.58785C7.30317 3.47845 7.1548 3.41699 7.00008 3.41699Z" fill="#88847E"/>
<path d="M7.58342 11.0003C7.58342 10.6782 7.32225 10.417 7.00008 10.417C6.67792 10.417 6.41675 10.6782 6.41675 11.0003C6.41675 11.3225 6.67792 11.5837 7.00008 11.5837C7.32225 11.5837 7.58342 11.3225 7.58342 11.0003Z" fill="#88847E"/>
</g>
<defs>
<clipPath id="clip0_2743_8550">
<rect width="14" height="14" fill="white" transform="translate(0 0.5)"/>
</clipPath>
</defs>
</svg>
